<svg xmlns="http://www.w3.org/2000/svg" xmlns:xlink="http://www.w3.org/1999/xlink" class="httpgd" width="2048.00" height="1457.00" viewBox="0 0 1638.40 1165.60">
<defs>
  <style type='text/css'><![CDATA[
    .httpgd line, .httpgd polyline, .httpgd polygon, .httpgd path, .httpgd rect, .httpgd circle {
      fill: none;
      stroke: #000000;
      stroke-linecap: round;
      stroke-linejoin: round;
      stroke-miterlimit: 10.00;
    }
  ]]></style>
<clipPath id="c0"><rect x="0.00" y="0.00" width="1638.40" height="1165.60"/></clipPath>
<clipPath id="c1"><rect x="59.04" y="59.04" width="1549.12" height="1033.12"/></clipPath>
<clipPath id="c2"><rect x="0.00" y="0.00" width="1638.40" height="1165.60"/></clipPath>
</defs>
<rect width="100%" height="100%" style="stroke: none;fill: #FFFFFF;"/>
<g clip-path="url(#c0)">
</g><g clip-path="url(#c1)">
<line x1="117.09" y1="104.47" x2="191.24" y2="895.06" style="stroke-width: 0.75;"/>
<line x1="196.29" y1="907.94" x2="263.02" y2="994.94" style="stroke-width: 0.75;"/>
<line x1="274.46" y1="1002.07" x2="335.84" y2="1014.44" style="stroke-width: 0.75;"/>
<line x1="350.00" y1="1017.04" x2="411.29" y2="1027.25" style="stroke-width: 0.75;"/>
<line x1="425.59" y1="1028.57" x2="486.68" y2="1029.65" style="stroke-width: 0.75;"/>
<line x1="501.04" y1="1030.50" x2="562.21" y2="1036.67" style="stroke-width: 0.75;"/>
<line x1="576.57" y1="1037.56" x2="637.67" y2="1038.95" style="stroke-width: 0.75;"/>
<line x1="652.06" y1="1039.37" x2="713.16" y2="1041.59" style="stroke-width: 0.75;"/>
<line x1="727.55" y1="1042.18" x2="788.66" y2="1044.98" style="stroke-width: 0.75;"/>
<line x1="803.05" y1="1045.46" x2="864.15" y2="1046.82" style="stroke-width: 0.75;"/>
<line x1="878.55" y1="1047.10" x2="939.64" y2="1048.16" style="stroke-width: 0.75;"/>
<line x1="954.04" y1="1048.38" x2="1015.13" y2="1049.14" style="stroke-width: 0.75;"/>
<line x1="1029.53" y1="1049.39" x2="1090.63" y2="1050.72" style="stroke-width: 0.75;"/>
<line x1="1105.03" y1="1050.94" x2="1166.12" y2="1051.44" style="stroke-width: 0.75;"/>
<line x1="1180.52" y1="1051.58" x2="1241.61" y2="1052.32" style="stroke-width: 0.75;"/>
<line x1="1256.01" y1="1052.42" x2="1317.11" y2="1052.55" style="stroke-width: 0.75;"/>
<line x1="1331.51" y1="1052.60" x2="1392.60" y2="1052.85" style="stroke-width: 0.75;"/>
<line x1="1407.00" y1="1052.92" x2="1468.09" y2="1053.26" style="stroke-width: 0.75;"/>
<line x1="1482.49" y1="1053.35" x2="1543.59" y2="1053.84" style="stroke-width: 0.75;"/>
<circle cx="116.41" cy="97.30" r="2.70" style="stroke-width: 0.75;"/>
<circle cx="191.91" cy="902.23" r="2.70" style="stroke-width: 0.75;"/>
<circle cx="267.40" cy="1000.65" r="2.70" style="stroke-width: 0.75;"/>
<circle cx="342.89" cy="1015.86" r="2.70" style="stroke-width: 0.75;"/>
<circle cx="418.39" cy="1028.44" r="2.70" style="stroke-width: 0.75;"/>
<circle cx="493.88" cy="1029.78" r="2.70" style="stroke-width: 0.75;"/>
<circle cx="569.37" cy="1037.39" r="2.70" style="stroke-width: 0.75;"/>
<circle cx="644.87" cy="1039.11" r="2.70" style="stroke-width: 0.75;"/>
<circle cx="720.36" cy="1041.85" r="2.70" style="stroke-width: 0.75;"/>
<circle cx="795.85" cy="1045.31" r="2.70" style="stroke-width: 0.75;"/>
<circle cx="871.35" cy="1046.98" r="2.70" style="stroke-width: 0.75;"/>
<circle cx="946.84" cy="1048.29" r="2.70" style="stroke-width: 0.75;"/>
<circle cx="1022.33" cy="1049.23" r="2.70" style="stroke-width: 0.75;"/>
<circle cx="1097.83" cy="1050.88" r="2.70" style="stroke-width: 0.75;"/>
<circle cx="1173.32" cy="1051.49" r="2.70" style="stroke-width: 0.75;"/>
<circle cx="1248.81" cy="1052.40" r="2.70" style="stroke-width: 0.75;"/>
<circle cx="1324.31" cy="1052.57" r="2.70" style="stroke-width: 0.75;"/>
<circle cx="1399.80" cy="1052.88" r="2.70" style="stroke-width: 0.75;"/>
<circle cx="1475.29" cy="1053.29" r="2.70" style="stroke-width: 0.75;"/>
<circle cx="1550.79" cy="1053.90" r="2.70" style="stroke-width: 0.75;"/>
</g><g clip-path="url(#c2)">
<line x1="418.39" y1="1092.16" x2="1550.79" y2="1092.16" style="stroke-width: 0.75;"/>
<line x1="418.39" y1="1092.16" x2="418.39" y2="1099.36" style="stroke-width: 0.75;"/>
<line x1="795.85" y1="1092.16" x2="795.85" y2="1099.36" style="stroke-width: 0.75;"/>
<line x1="1173.32" y1="1092.16" x2="1173.32" y2="1099.36" style="stroke-width: 0.75;"/>
<line x1="1550.79" y1="1092.16" x2="1550.79" y2="1099.36" style="stroke-width: 0.75;"/>
<g><text x="418.39" y="1118.08" text-anchor="middle" style="font-family: Arial;font-size: 12.00px;" textLength="6.67px" lengthAdjust="spacingAndGlyphs">5</text></g>
<g><text x="795.85" y="1118.08" text-anchor="middle" style="font-family: Arial;font-size: 12.00px;" textLength="13.35px" lengthAdjust="spacingAndGlyphs">10</text></g>
<g><text x="1173.32" y="1118.08" text-anchor="middle" style="font-family: Arial;font-size: 12.00px;" textLength="13.35px" lengthAdjust="spacingAndGlyphs">15</text></g>
<g><text x="1550.79" y="1118.08" text-anchor="middle" style="font-family: Arial;font-size: 12.00px;" textLength="13.35px" lengthAdjust="spacingAndGlyphs">20</text></g>
<line x1="59.04" y1="1064.75" x2="59.04" y2="170.90" style="stroke-width: 0.75;"/>
<line x1="59.04" y1="1064.75" x2="51.84" y2="1064.75" style="stroke-width: 0.75;"/>
<line x1="59.04" y1="885.98" x2="51.84" y2="885.98" style="stroke-width: 0.75;"/>
<line x1="59.04" y1="707.21" x2="51.84" y2="707.21" style="stroke-width: 0.75;"/>
<line x1="59.04" y1="528.44" x2="51.84" y2="528.44" style="stroke-width: 0.75;"/>
<line x1="59.04" y1="349.67" x2="51.84" y2="349.67" style="stroke-width: 0.75;"/>
<line x1="59.04" y1="170.90" x2="51.84" y2="170.90" style="stroke-width: 0.75;"/>
<g><text transform="translate(41.76,1064.75) rotate(-90.00)" text-anchor="middle" style="font-family: Arial;font-size: 12.00px;" textLength="6.67px" lengthAdjust="spacingAndGlyphs">0</text></g>
<g><text transform="translate(41.76,885.98) rotate(-90.00)" text-anchor="middle" style="font-family: Arial;font-size: 12.00px;" textLength="13.35px" lengthAdjust="spacingAndGlyphs">50</text></g>
<g><text transform="translate(41.76,707.21) rotate(-90.00)" text-anchor="middle" style="font-family: Arial;font-size: 12.00px;" textLength="20.02px" lengthAdjust="spacingAndGlyphs">100</text></g>
<g><text transform="translate(41.76,528.44) rotate(-90.00)" text-anchor="middle" style="font-family: Arial;font-size: 12.00px;" textLength="20.02px" lengthAdjust="spacingAndGlyphs">150</text></g>
<g><text transform="translate(41.76,349.67) rotate(-90.00)" text-anchor="middle" style="font-family: Arial;font-size: 12.00px;" textLength="20.02px" lengthAdjust="spacingAndGlyphs">200</text></g>
<g><text transform="translate(41.76,170.90) rotate(-90.00)" text-anchor="middle" style="font-family: Arial;font-size: 12.00px;" textLength="20.02px" lengthAdjust="spacingAndGlyphs">250</text></g>
<polygon points="59.04,1092.16 1608.16,1092.16 1608.16,59.04 59.04,59.04" style="stroke-width: 0.75;" />
<g><text x="833.60" y="1146.88" text-anchor="middle" style="font-family: Arial;font-size: 12.00px;" textLength="29.36px" lengthAdjust="spacingAndGlyphs">Index</text></g>
<g><text transform="translate(12.96,575.60) rotate(-90.00)" text-anchor="middle" style="font-family: Arial;font-size: 12.00px;" textLength="184.80px" lengthAdjust="spacingAndGlyphs">x_factor_number$Analysis[1:20, 1]</text></g>
</g>
</svg>